<?xml version="1.0" encoding="utf-8"?>
<!-- Generator: Adobe Illustrator 18.0.0, SVG Export Plug-In . SVG Version: 6.00 Build 0)  -->
<!DOCTYPE svg PUBLIC "-//W3C//DTD SVG 1.1//EN" "http://www.w3.org/Graphics/SVG/1.1/DTD/svg11.dtd">
<svg version="1.1" id="Layer_1" xmlns="http://www.w3.org/2000/svg" xmlns:xlink="http://www.w3.org/1999/xlink" x="0px" y="0px"
	 viewBox="0 0 250 100" enable-background="new 0 0 250 100" xml:space="preserve">
<g>
	<path fill="#00AB6B" d="M53.9,57.7c0,2.7,0.1,5.4,0.2,8.1c0,2.3-1.7,2.9-3.5,2.9c-2,0-2.6-1.6-3-4.9c-1.9,3.3-5.1,5-9.1,5
		c-8.2,0-13.5-6.3-13.5-14c0-9.2,6.2-15.6,14.3-15.6c3.5,0,6.6,1.6,8.4,4.4c0.1-0.8,0.2-1.8,0.4-2.3c0.4-1.2,1.3-2,2.7-2
		c2.5,0,3.2,1.4,3.2,3.8L54,48.1L53.9,57.7z M39.3,63c4.6,0,8.1-3.5,8.1-8.9c0-5.7-3.8-8.8-7.8-8.8c-4.5,0-7.8,3.8-7.8,9.5
		C31.9,59.5,35.2,63,39.3,63z"/>
	<path fill="#00AB6B" d="M61,43.4c-0.1-2.6,0.8-4,3.5-4c2.1,0,2.9,1,3,3.1l0.1,2.2c1.4-3.5,5.4-5.5,9.2-5.5
		c6.9,0,10.7,4.6,10.7,12.4c0,2.6-0.1,3.9-0.1,8.1v5.4c0,2.5-1.3,3.5-3.7,3.5c-1.8,0-3.2-0.9-3.2-3c0-3.6,0.2-8.1,0.2-12.1
		c-0.1-4.3-0.9-8.3-5.6-8.3c-6.4-0.1-7.5,4.9-7.5,10.7l0.1,9.9c0,2.3-1.9,3-3.4,3c-1.9,0-3.4-0.7-3.4-3c0-3.8,0.2-7.6,0.1-16.8
		L61,43.4z"/>
	<path fill="#00AB6B" d="M90.6,42.7c0-1.8,1.2-3,2.9-3h3.2l0.1-4.6c0.1-2.1,0.9-4.2,3.7-4.2c2,0,2.8,1.1,2.8,3.2
		c0,1.4-0.1,3.6-0.1,5.5h5.3c1.8-0.1,2.9,0.9,2.9,2.9c0,1.7-0.8,3-2.6,3h-5.6v11.1c0,3.8,0.7,6,3.3,6c1.5,0,1.9-0.5,2.9-0.5
		c1.6,0,2.5,1.5,2.5,2.9c0,1.5-0.5,2.3-1.4,2.8c-1.2,0.7-2.2,0.9-4.7,0.9c-5.9,0-9.2-3.3-9.2-11.3c0-3.8,0.2-8.1,0.1-11.9h-3.4
		C91.4,45.6,90.6,44.5,90.6,42.7z"/>
	<path fill="#00AB6B" d="M131.7,39.4c7.9,1.2,11.5,8.1,11.5,14.6c0,8.6-6.4,14.9-15.1,14.9c-7.5,0-14.1-5.7-14.1-14.1
		c0-9.4,6-15.8,15.8-15.9C130.6,39.1,131.2,39.1,131.7,39.4z M128.6,45.1c-4.7,0.3-7.8,3.8-7.8,9.8c0,4.8,3.7,8,7.2,8
		c4.4,0,8.4-3.5,8.4-9.1C136.4,49.2,133.7,45.4,128.6,45.1z"/>
	<path fill="#00AB6B" d="M152.2,39.4c1.4,0,2.4,0.8,2.6,2.3l0.2,3.5c1.8-4,5.3-6,8.4-6c2.2,0,3.3,0.9,3.3,3.3c0,1.6-0.8,3.3-2.8,3.3
		h-1.1c-4.1,0-7.5,3.7-7.5,10c0,3.2,0.1,6.6,0.1,10.1c-0.1,2.1-1.5,2.9-3.5,2.9c-2.1,0-3.3-0.9-3.3-3.8c0.1-4.9,0.2-11,0.2-15.5
		c0-2.1-0.1-4.5-0.1-6.7C148.8,40.5,150.1,39.4,152.2,39.4z"/>
	<path fill="#00AB6B" d="M182.2,62.8c2.3,0,4.5-0.8,6-1.7c0.7-0.4,1.5-0.8,2.4-0.8c1.5,0,2.9,1.6,2.9,3.3c0,1.2-0.7,2.1-1.9,2.9
		c-2.3,1.5-5.2,2.5-10,2.5c-7.7,0-13.8-6.2-13.9-13.9c0-8.8,6.2-15.9,14.3-15.9c7.3,0,12.5,5.8,12.5,11.6c0,3.3-0.5,4.9-4.8,5
		c-3.5,0.1-7.7,0.1-15.1,0.1C174.9,59.6,178,62.8,182.2,62.8z M174.7,51.4c3.2,0,10-0.1,12.7-0.3c0.4-0.1,0.7-0.3,0.7-0.6
		c0-3.5-2.9-5.9-6-5.9C178,44.7,175.1,48.1,174.7,51.4z"/>
	<path fill="#00AB6B" d="M212.7,62.8c2.3,0,4.5-0.8,6-1.7c0.7-0.4,1.5-0.8,2.4-0.8c1.5,0,2.9,1.6,2.9,3.3c0,1.2-0.7,2.1-1.9,2.9
		c-2.3,1.5-5.2,2.5-10,2.5c-7.7,0-13.8-6.2-13.9-13.9c0-8.8,6.2-15.9,14.3-15.9c7.3,0,12.5,5.8,12.5,11.6c0,3.3-0.5,4.9-4.8,5
		c-3.5,0.1-7.7,0.1-15.1,0.1C205.3,59.6,208.4,62.8,212.7,62.8z M205.2,51.4c3.2,0,10-0.1,12.7-0.3c0.4-0.1,0.7-0.3,0.7-0.6
		c0-3.5-2.9-5.9-6-5.9C208.4,44.7,205.5,48.1,205.2,51.4z"/>
</g>
</svg>
