<?xml version="1.0" encoding="UTF-8" standalone="no"?>
<svg width="145px" height="23px" viewBox="0 0 145 23" version="1.1" xmlns="http://www.w3.org/2000/svg" xmlns:xlink="http://www.w3.org/1999/xlink">
    <!-- Generator: Sketch 3.6.1 (26313) - http://www.bohemiancoding.com/sketch -->
    <title>antoree kid</title>
    <desc>Created with Sketch.</desc>
    <defs></defs>
    <g id="LandingPageKid" stroke="none" stroke-width="1" fill="none" fill-rule="evenodd">
        <g id="LandingPage7" transform="translate(-21.000000, -14.000000)" fill="#00AB6B">
            <path d="M35.21,26.34 L35.24,24.03 C35.24,22.89 34.88,22.2 33.68,22.2 C32.99,22.2 32.57,22.56 32.36,23.13 C32.3,23.4 32.24,23.88 32.18,24.24 C31.28,22.89 29.78,22.14 28.1,22.14 C24.2,22.14 21.2,25.17 21.2,29.55 C21.2,33.21 23.72,36.21 27.71,36.21 C29.66,36.21 31.22,35.37 32.12,33.81 C32.33,35.37 32.6,36.12 33.59,36.12 C34.46,36.12 35.3,35.82 35.3,34.74 C35.21,33.45 35.18,32.19 35.18,30.9 L35.21,26.34 Z M24.53,29.46 C24.53,26.79 26.12,24.96 28.28,24.96 C30.23,24.96 32.06,26.43 32.06,29.16 C32.06,31.71 30.35,33.39 28.13,33.39 C26.12,33.39 24.53,31.74 24.53,29.46 L24.53,29.46 Z M39.0292308,26.7 C39.0592308,31.11 38.9692308,32.91 38.9692308,34.71 C38.9692308,35.82 39.6892308,36.15 40.6192308,36.15 C41.3692308,36.15 42.2692308,35.82 42.2692308,34.74 L42.2392308,30.03 C42.2392308,27.24 42.7492308,24.9 45.8692308,24.93 C48.1492308,24.93 48.5692308,26.85 48.5992308,28.89 C48.5992308,30.78 48.5092308,32.94 48.5092308,34.65 C48.5092308,35.64 49.1992308,36.09 50.0692308,36.09 C51.2092308,36.09 51.8392308,35.61 51.8392308,34.41 L51.8392308,31.83 C51.8392308,29.82 51.8692308,29.19 51.8692308,27.96 C51.8692308,24.24 50.0092308,22.05 46.6792308,22.05 C44.8192308,22.05 42.8992308,23.01 42.2092308,24.66 L42.1492308,23.61 C42.0592308,22.62 41.6992308,22.14 40.6792308,22.14 C39.3892308,22.14 38.9692308,22.83 38.9992308,24.06 L39.0292308,26.7 Z M54.9384615,25.14 L56.5884615,25.14 C56.6184615,26.97 56.5284615,28.98 56.5284615,30.81 C56.5284615,34.62 58.1184615,36.18 60.9684615,36.18 C62.1384615,36.18 62.6184615,36.06 63.2184615,35.73 C63.6384615,35.49 63.8784615,35.1 63.8784615,34.38 C63.8784615,33.72 63.4584615,33 62.6784615,33 C62.1984615,33 62.0184615,33.24 61.2984615,33.24 C60.0684615,33.24 59.7084615,32.19 59.7084615,30.39 L59.7084615,25.11 L62.4084615,25.11 C63.2784615,25.11 63.6684615,24.51 63.6684615,23.7 C63.6684615,22.77 63.1584615,22.29 62.2884615,22.32 L59.7084615,22.32 C59.7084615,21.39 59.7684615,20.34 59.7684615,19.68 C59.7684615,18.72 59.4084615,18.18 58.4184615,18.18 C57.0984615,18.18 56.6784615,19.14 56.6484615,20.16 L56.5884615,22.35 L55.0584615,22.35 C54.2184615,22.35 53.6484615,22.89 53.6484615,23.76 C53.6484615,24.6 54.0384615,25.14 54.9384615,25.14 L54.9384615,25.14 Z M73.0376923,22.02 C68.2976923,22.08 65.3876923,25.11 65.3876923,29.58 C65.3876923,33.57 68.5676923,36.27 72.1976923,36.27 C76.3676923,36.27 79.4876923,33.27 79.4876923,29.16 C79.4876923,26.04 77.7776923,22.77 73.9376923,22.2 C73.6676923,22.05 73.3676923,22.02 73.0376923,22.02 L73.0376923,22.02 Z M76.2176923,29.04 C76.2176923,31.71 74.2676923,33.39 72.1376923,33.39 C70.4276923,33.39 68.6576923,31.86 68.6576923,29.58 C68.6576923,26.73 70.1576923,25.02 72.4376923,24.9 C74.8676923,25.02 76.2176923,26.85 76.2176923,29.04 L76.2176923,29.04 Z M82.5869231,23.73 C82.5869231,24.78 82.6169231,25.89 82.6169231,26.91 C82.6169231,29.04 82.5569231,31.98 82.5269231,34.29 C82.4969231,35.7 83.0969231,36.12 84.1169231,36.12 C85.0769231,36.12 85.7669231,35.73 85.7969231,34.74 C85.8269231,33.06 85.7669231,31.41 85.7669231,29.91 C85.7669231,26.91 87.4169231,25.17 89.3969231,25.17 L89.9069231,25.17 C90.8669231,25.17 91.2569231,24.39 91.2569231,23.61 C91.2569231,22.5 90.7169231,22.05 89.6669231,22.05 C88.1669231,22.05 86.4569231,23.01 85.5869231,24.9 L85.4669231,23.25 C85.3469231,22.53 84.8969231,22.17 84.2069231,22.17 C83.1869231,22.17 82.5569231,22.68 82.5869231,23.73 L82.5869231,23.73 Z M95.4361538,30 C99.0061538,29.97 101.046154,30 102.726154,29.94 C104.826154,29.91 105.066154,29.13 105.066154,27.57 C105.066154,24.81 102.516154,22.05 99.0061538,22.05 C95.1061538,22.05 92.1061538,25.44 92.1061538,29.64 C92.1661538,33.27 95.1061538,36.24 98.8261538,36.24 C101.136154,36.24 102.546154,35.76 103.656154,35.04 C104.196154,34.68 104.556154,34.23 104.556154,33.66 C104.556154,32.85 103.896154,32.1 103.176154,32.1 C102.726154,32.1 102.366154,32.28 102.006154,32.49 C101.256154,32.94 100.206154,33.3 99.0961538,33.3 C97.0561538,33.3 95.5561538,31.8 95.4361538,30 L95.4361538,30 Z M99.0661538,24.72 C100.566154,24.72 101.946154,25.86 101.946154,27.51 C101.946154,27.66 101.796154,27.75 101.586154,27.78 C100.326154,27.87 97.0261538,27.9 95.4661538,27.9 C95.6461538,26.31 97.0561538,24.72 99.0661538,24.72 L99.0661538,24.72 Z M110.535385,30 C114.105385,29.97 116.145385,30 117.825385,29.94 C119.925385,29.91 120.165385,29.13 120.165385,27.57 C120.165385,24.81 117.615385,22.05 114.105385,22.05 C110.205385,22.05 107.205385,25.44 107.205385,29.64 C107.265385,33.27 110.205385,36.24 113.925385,36.24 C116.235385,36.24 117.645385,35.76 118.755385,35.04 C119.295385,34.68 119.655385,34.23 119.655385,33.66 C119.655385,32.85 118.995385,32.1 118.275385,32.1 C117.825385,32.1 117.465385,32.28 117.105385,32.49 C116.355385,32.94 115.305385,33.3 114.195385,33.3 C112.155385,33.3 110.655385,31.8 110.535385,30 L110.535385,30 Z M114.165385,24.72 C115.665385,24.72 117.045385,25.86 117.045385,27.51 C117.045385,27.66 116.895385,27.75 116.685385,27.78 C115.425385,27.87 112.125385,27.9 110.565385,27.9 C110.745385,26.31 112.155385,24.72 114.165385,24.72 L114.165385,24.72 Z M136.953846,28.53 C138.003846,27.54 139.803846,25.89 140.943846,24.75 C141.303846,24.36 141.543846,24 141.543846,23.61 C141.543846,22.86 140.703846,22.02 139.923846,22.02 C139.413846,22.02 138.963846,22.32 138.483846,22.83 L133.443846,27.99 C133.473846,24 133.533846,19.74 133.533846,15.75 C133.533846,14.64 132.963846,14.13 131.883846,14.13 C131.013846,14.13 130.203846,14.61 130.203846,15.66 C130.233846,16.29 130.233846,17.37 130.233846,17.91 C130.233846,22.5 130.263846,26.58 130.263846,31.08 L130.203846,34.38 C130.173846,35.52 130.683846,36.15 131.823846,36.15 C133.023846,36.15 133.413846,35.49 133.413846,34.44 L133.443846,31.5 C133.713846,31.23 134.433846,30.54 134.733846,30.27 L138.813846,35.22 C139.263846,35.79 139.683846,36.15 140.223846,36.15 C141.153846,36.15 141.933846,35.25 141.933846,34.56 C141.933846,34.2 141.783846,33.93 141.513846,33.6 L136.953846,28.53 Z M144.493077,23.64 L144.493077,34.74 C144.493077,35.7 145.183077,36.15 146.113077,36.15 C147.193077,36.15 147.823077,35.64 147.793077,34.53 L147.793077,30.78 C147.763077,28.53 147.823077,26.22 147.793077,23.97 C147.793077,22.5 147.073077,22.14 146.083077,22.14 C145.363077,22.14 144.553077,22.53 144.493077,23.64 L144.493077,23.64 Z M146.023077,18.57 C147.283077,18.57 148.303077,17.97 148.303077,16.59 C148.303077,15.45 147.613077,14.55 146.263077,14.55 C145.303077,14.55 144.283077,15.12 144.103077,16.32 C143.953077,17.58 144.763077,18.57 146.023077,18.57 L146.023077,18.57 Z M165.052308,15.78 C165.082308,14.64 164.362308,14.25 163.342308,14.25 C162.292308,14.25 161.722308,14.85 161.722308,16.05 L161.752308,24.09 C160.972308,22.86 159.502308,22.14 157.912308,22.14 C153.892308,22.14 150.922308,25.35 150.922308,29.52 C150.922308,32.91 153.352308,36.24 157.462308,36.24 C159.412308,36.24 160.972308,35.22 161.902308,33.69 L162.022308,35.04 C162.142308,35.73 162.622308,36.18 163.462308,36.18 C164.392308,36.18 165.022308,35.73 165.022308,34.74 C165.022308,31.59 164.962308,30.15 164.962308,28.89 C164.962308,26.73 164.992308,24.81 164.992308,22.71 L165.052308,15.78 Z M154.222308,29.4 C154.222308,26.76 155.962308,24.99 158.122308,24.99 C160.192308,24.99 161.812308,26.58 161.812308,29.19 C161.812308,31.8 160.042308,33.36 157.912308,33.36 C155.842308,33.36 154.222308,31.56 154.222308,29.4 L154.222308,29.4 Z" id="antoree-kid"></path>
        </g>
    </g>
</svg>