<?xml version="1.0" encoding="utf-8"?>
<!-- Generator: Avocode 2.6.0 - http://avocode.com -->
<svg height="22" width="115" xmlns:xlink="http://www.w3.org/1999/xlink" xmlns="http://www.w3.org/2000/svg" viewBox="0 0 115 22">
    <path fill="#00ab6b" fill-rule="evenodd" d="M 16.98 9.92 L 17.02 7.11 C 17.02 5.73 16.58 4.89 15.13 4.89 C 14.29 4.89 13.78 5.33 13.53 6.02 C 13.46 6.35 13.38 6.93 13.31 7.37 C 12.22 5.73 10.4 4.82 8.36 4.82 C 3.64 4.82 0 8.5 0 13.83 C 0 18.28 3.05 21.93 7.89 21.93 C 10.26 21.93 12.15 20.91 13.24 19.01 C 13.49 20.91 13.82 21.82 15.02 21.82 C 16.07 21.82 17.09 21.45 17.09 20.14 C 16.98 18.57 16.95 17.04 16.95 15.47 L 16.98 9.92 Z M 4.04 13.72 C 4.04 10.47 5.96 8.25 8.58 8.25 C 10.95 8.25 13.16 10.03 13.16 13.35 C 13.16 16.45 11.09 18.5 8.4 18.5 C 5.96 18.5 4.04 16.49 4.04 13.72 L 4.04 13.72 Z M 20.68 10.36 C 20.72 15.72 20.61 17.91 20.61 20.1 C 20.61 21.45 21.48 21.85 22.61 21.85 C 23.52 21.85 24.61 21.45 24.61 20.14 L 24.57 14.41 C 24.57 11.02 25.19 8.17 28.97 8.21 C 31.74 8.21 32.24 10.54 32.28 13.02 C 32.28 15.32 32.17 17.95 32.17 20.03 C 32.17 21.23 33.01 21.78 34.06 21.78 C 35.44 21.78 36.21 21.2 36.21 19.74 L 36.21 16.6 C 36.21 14.16 36.24 13.39 36.24 11.89 C 36.24 7.37 33.99 4.71 29.95 4.71 C 27.7 4.71 25.37 5.87 24.53 7.88 L 24.46 6.6 C 24.35 5.4 23.92 4.82 22.68 4.82 C 21.12 4.82 20.61 5.66 20.64 7.15 L 20.68 10.36 Z M 39.03 8.46 L 41.03 8.46 C 41.07 10.69 40.96 13.13 40.96 15.36 C 40.96 19.99 42.89 21.89 46.34 21.89 C 47.76 21.89 48.34 21.74 49.07 21.34 C 49.58 21.05 49.87 20.58 49.87 19.7 C 49.87 18.9 49.36 18.02 48.42 18.02 C 47.83 18.02 47.62 18.32 46.74 18.32 C 45.25 18.32 44.82 17.04 44.82 14.85 L 44.82 8.43 L 48.09 8.43 C 49.14 8.43 49.62 7.7 49.62 6.71 C 49.62 5.58 49 5 47.94 5.03 L 44.82 5.03 C 44.82 3.9 44.89 2.63 44.89 1.82 C 44.89 0.66 44.45 0 43.25 0 C 41.65 0 41.14 1.17 41.11 2.41 L 41.03 5.07 L 39.18 5.07 C 38.16 5.07 37.47 5.73 37.47 6.79 C 37.47 7.81 37.94 8.46 39.03 8.46 L 39.03 8.46 Z M 60.04 4.67 C 54.29 4.74 50.77 8.43 50.77 13.86 C 50.77 18.72 54.62 22 59.02 22 C 64.08 22 67.86 18.35 67.86 13.35 C 67.86 9.56 65.79 5.58 61.13 4.89 C 60.8 4.71 60.44 4.67 60.04 4.67 L 60.04 4.67 Z M 63.9 13.21 C 63.9 16.45 61.53 18.5 58.95 18.5 C 56.88 18.5 54.73 16.64 54.73 13.86 C 54.73 10.4 56.55 8.32 59.31 8.17 C 62.26 8.32 63.9 10.54 63.9 13.21 L 63.9 13.21 Z M 70.68 6.75 C 70.68 8.03 70.72 9.38 70.72 10.62 C 70.72 13.21 70.65 16.78 70.61 19.59 C 70.57 21.31 71.3 21.82 72.54 21.82 C 73.7 21.82 74.54 21.34 74.57 20.14 C 74.61 18.1 74.54 16.09 74.54 14.27 C 74.54 10.62 76.54 8.5 78.94 8.5 L 79.56 8.5 C 80.72 8.5 81.19 7.55 81.19 6.6 C 81.19 5.25 80.54 4.71 79.27 4.71 C 77.45 4.71 75.37 5.87 74.32 8.17 L 74.17 6.17 C 74.03 5.29 73.48 4.85 72.65 4.85 C 71.41 4.85 70.65 5.47 70.68 6.75 L 70.68 6.75 Z M 85.33 14.37 C 89.65 14.34 92.13 14.37 94.16 14.3 C 96.71 14.27 97 13.32 97 11.42 C 97 8.06 93.91 4.71 89.65 4.71 C 84.93 4.71 81.29 8.83 81.29 13.94 C 81.36 18.35 84.93 21.96 89.44 21.96 C 92.24 21.96 93.95 21.38 95.29 20.5 C 95.95 20.07 96.38 19.52 96.38 18.83 C 96.38 17.84 95.58 16.93 94.71 16.93 C 94.16 16.93 93.73 17.15 93.29 17.4 C 92.38 17.95 91.11 18.39 89.76 18.39 C 87.29 18.39 85.47 16.56 85.33 14.37 L 85.33 14.37 Z M 89.73 7.95 C 91.55 7.95 93.22 9.34 93.22 11.35 C 93.22 11.53 93.04 11.64 92.78 11.67 C 91.25 11.78 87.25 11.82 85.36 11.82 C 85.58 9.89 87.29 7.95 89.73 7.95 L 89.73 7.95 Z M 102.7 14.37 C 107.03 14.34 109.5 14.37 111.53 14.3 C 114.08 14.27 114.37 13.32 114.37 11.42 C 114.37 8.06 111.28 4.71 107.03 4.71 C 102.3 4.71 98.66 8.83 98.66 13.94 C 98.73 18.35 102.3 21.96 106.81 21.96 C 109.61 21.96 111.32 21.38 112.66 20.5 C 113.32 20.07 113.75 19.52 113.75 18.83 C 113.75 17.84 112.95 16.93 112.08 16.93 C 111.53 16.93 111.1 17.15 110.66 17.4 C 109.75 17.95 108.48 18.39 107.13 18.39 C 104.66 18.39 102.84 16.56 102.7 14.37 L 102.7 14.37 Z M 107.1 7.95 C 108.92 7.95 110.59 9.34 110.59 11.35 C 110.59 11.53 110.41 11.64 110.15 11.67 C 108.63 11.78 104.63 11.82 102.73 11.82 C 102.95 9.89 104.66 7.95 107.1 7.95 L 107.1 7.95 Z M 107.1 7.95" />
</svg>