<?xml version="1.0" encoding="UTF-8" standalone="no"?>
<!DOCTYPE svg  PUBLIC '-//W3C//DTD SVG 1.1//EN'  'http://www.w3.org/Graphics/SVG/1.1/DTD/svg11.dtd'>
<svg version="1.1" xmlns="http://www.w3.org/2000/svg">
<defs>
<font id="UTMDaxlineBold" horiz-adv-x="1282">
<font-face panose-1="2 4 6 3 5 5 6 2 2 4" x-height="1104" underline-thickness="109" font-family="d" bbox="-116 -465.017 1925 1890" ascent="1638" cap-height="1483" descent="-410" units-per-em="2048" font-weight="700" underline-position="-251" unicode-range="U+0020-2212"/>
<missing-glyph/>
<glyph horiz-adv-x="394" glyph-name="space" unicode=" "/>
<glyph d="M456 158q0 -37 -14 -69q-14 -31 -36 -55q-24 -24 -54 -38t-66 -14q-34 0 -64 14t-52 38t-36 55q-14 32 -14 69q0 36 14 68t36 56t52 38t64 14q36 0 66 -14t54 -38t36 -56q14 -32 14 -68zM405 518h-234l-43 965h318z" horiz-adv-x="575" glyph-name="exclam" unicode="!"/>
<glyph d="M325 813h-154l-49 623q22 32 56 48t71 17q37 -1 69 -17t54 -48zM753 813h-154l-49 623q24 32 56 48t69 17q78 0 125 -65z" horiz-adv-x="925" glyph-name="quotedbl" unicode='&quot;'/>
<glyph d="M606 911l-45 -323h303l45 323h-303zM1116 911l-45 -323h217v-193h-242l-53 -395h-209l55 395h-305l-53 -395h-207l53 395h-217v193h244l45 323h-217v193h243l52 379h206l-51 -379h305l52 379h206l-51 -379h215v-193h-243z" horiz-adv-x="1484" glyph-name="numbersign" unicode="#"/>
<glyph d="M1009 428q-1 -178 -105 -294t-290 -146l14 -314h-219l31 303q-90 5 -184 27t-152 51l98 248q52 -29 130 -51t147 -21q117 -1 181 45t65 134q1 40 -17 72t-47 56t-67 46q-38 20 -78 39q-64 28 -134 65t-126 89q-58 52 -96 124t-38 170q0 175 100 285t275 139l-16 299h215 l-33 -289q92 -5 170 -27t131 -51l-92 -229q-40 24 -108 44t-140 20q-110 0 -166 -44t-57 -126q1 -39 19 -71q18 -33 48 -59t68 -48q39 -22 80 -42q61 -30 131 -66t128 -87t96 -122t38 -169z" horiz-adv-x="1122" glyph-name="dollar" unicode="$"/>
<glyph d="M581 1044q-1 138 -35 210t-100 71q-66 1 -100 -71t-35 -210q0 -278 135 -278t135 278zM1617 442q-1 138 -35 210t-100 71q-65 1 -99 -71t-34 -210q0 -278 133 -278q135 0 135 278zM788 1042q0 -100 -22 -185t-64 -147q-44 -62 -108 -98q-64 -34 -148 -34t-148 34t-108 98 q-42 62 -64 147t-22 185q0 101 22 186q22 86 64 148q44 62 108 96t148 35q84 -1 148 -35t108 -96q42 -62 64 -148q22 -85 22 -186zM786 -25l-168 54l524 1478l168 -53zM1824 440q0 -100 -22 -185t-64 -147q-44 -62 -108 -98q-64 -35 -148 -35q-86 0 -150 35q-64 36 -105 98 t-63 147t-22 185q0 101 22 186q22 86 63 148t105 96t150 35q84 -1 148 -35t108 -96q42 -62 64 -148q22 -85 22 -186z" horiz-adv-x="1931" glyph-name="percent" unicode="%"/>
<glyph d="M840 713l-213 -37q-129 -24 -196 -86t-67 -170q0 -119 79 -172t225 -53q47 0 97 7t75 17v494zM1104 758v-703q-70 -32 -186 -56t-257 -24q-273 1 -423 107t-150 317q0 152 81 248t200 139v5q-117 39 -171 127t-55 192q0 80 30 152t88 128q57 54 145 86t200 31 q105 -1 197 -23t153 -57l-86 -215q-44 24 -106 40t-125 16q-109 0 -168 -46t-59 -137q0 -86 57 -135t151 -49q29 0 63 2t77 10l536 97l33 -213z" horiz-adv-x="1394" glyph-name="ampersand" unicode="&amp;"/>
<glyph d="M325 813h-154l-49 623q22 32 56 48t71 17q37 -1 69 -17t54 -48z" horiz-adv-x="499" glyph-name="quotesingle" unicode="&apos;"/>
<glyph d="M530 -451q-194 218 -310 481t-116 578q0 316 116 580t310 481l199 -115q-75 -94 -135 -202t-105 -224q-45 -118 -69 -248t-25 -272q1 -141 25 -270t69 -248q45 -120 105 -226t135 -200z" horiz-adv-x="784" glyph-name="parenleft" unicode="("/>
<glyph d="M680 608q0 -315 -116 -578t-310 -481l-199 115q75 94 135 200t105 226q45 119 69 248t25 270q-1 142 -25 272t-69 248t-105 224q-60 108 -135 202l199 115q194 -217 310 -481t116 -580z" horiz-adv-x="784" glyph-name="parenright" unicode=")"/>
<glyph d="M1044 1237q0 -23 -4 -40t-15 -34l-317 -76l213 -253q-3 -28 -15 -54t-32 -46t-48 -32q-26 -12 -53 -12q-10 0 -16 1t-16 3l-162 285l-162 -285q-8 -2 -15 -3t-18 -1q-26 0 -52 12t-46 32t-34 46t-15 54l215 253l-320 76q-16 31 -16 74q0 45 22 83t62 56l293 -129l-27 334 q41 53 113 53t115 -53l-29 -334l293 129q42 -18 64 -56t22 -83z" horiz-adv-x="1140" glyph-name="asterisk" unicode="*"/>
<glyph d="M650 557v-330h-225v330h-305v217h305v330h225v-330h308v-217h-308z" horiz-adv-x="1077" glyph-name="plus" unicode="+"/>
<glyph d="M172 -346h-186l182 582q27 40 70 69t102 29q60 0 88 -29t37 -69z" horiz-adv-x="532" glyph-name="comma" unicode=","/>
<glyph d="M436 158q0 -37 -14 -69q-14 -31 -36 -55t-52 -38t-66 -14q-34 0 -66 14t-54 38t-36 55q-14 32 -14 69q0 36 14 68t36 56t54 38t66 14q36 0 66 -14t52 -38t36 -56t14 -68z" horiz-adv-x="534" glyph-name="period" unicode="."/>
<glyph d="M238 -414l-252 76l653 1985l252 -78z" horiz-adv-x="952" glyph-name="slash" unicode="/"/>
<glyph d="M809 743q-1 121 -13 221t-38 170q-26 72 -69 112q-42 40 -101 40q-60 0 -102 -40t-68 -112t-38 -170q-12 -100 -12 -221q0 -119 12 -219t38 -172t68 -111q42 -40 102 -40q59 0 101 40q43 39 69 111t38 172t13 219zM1079 741q1 -163 -27 -303t-88 -242q-60 -104 -154 -162 q-93 -58 -222 -59q-130 1 -223 59t-153 162t-88 242q-28 140 -28 303t28 303t88 244t153 161q93 58 223 58q129 0 222 -58q94 -57 154 -161t88 -244t27 -303z" horiz-adv-x="1175" glyph-name="zero" unicode="0"/>
<glyph d="M448 0v1169q-35 -19 -80 -39t-97 -36q-51 -16 -105 -27q-54 -12 -103 -20l-39 213q70 12 140 32t136 50q64 28 117 64t90 77h213v-1483h-272z" horiz-adv-x="882" glyph-name="one" unicode="1"/>
<glyph d="M20 0l608 791q45 59 79 121t34 135q-1 103 -71 165t-201 62q-74 0 -154 -18t-145 -46l-80 217q88 39 194 59t209 21q259 1 395 -119t136 -327q0 -60 -16 -115t-42 -105q-26 -51 -58 -95t-63 -80l-372 -435h581v-231h-1034z" horiz-adv-x="1144" glyph-name="two" unicode="2"/>
<glyph d="M997 426q0 -102 -37 -185q-38 -83 -108 -141t-172 -92q-102 -33 -230 -33q-114 -1 -226 21t-200 59l86 217q66 -28 154 -44t182 -17q128 -1 200 59t72 158q0 57 -30 101t-86 73q-54 28 -126 44t-157 16h-23v204q174 10 276 76t103 164q0 80 -58 125t-169 45 q-74 0 -158 -18t-151 -48l-78 217q89 39 199 59t225 21q231 -1 347 -105t116 -276q0 -55 -20 -106t-55 -93q-34 -42 -77 -75t-90 -53v-4q56 -19 108 -49t93 -76t65 -106t25 -138z" horiz-adv-x="1079" glyph-name="three" unicode="3"/>
<glyph d="M708 1237q-14 -27 -29 -55q-26 -54 -65 -115l-320 -502h412v477v70t2 64q2 32 4 61h-4zM948 367v-367h-250v367h-637v198l592 918h295v-918h141v-198h-141z" horiz-adv-x="1155" glyph-name="four" unicode="4"/>
<glyph d="M1001 446q0 -116 -42 -204t-118 -148q-77 -60 -179 -89q-102 -30 -222 -30q-110 1 -218 23t-194 57l86 217q58 -28 148 -44t169 -17q139 1 215 61t76 168q0 58 -22 105t-68 81q-48 34 -122 52q-74 20 -179 20q-47 0 -100 -3t-113 -13l88 801h764v-232h-530l-41 -348h41 q280 -1 420 -121t141 -336z" horiz-adv-x="1083" glyph-name="five" unicode="5"/>
<glyph d="M827 457q-1 123 -73 189t-187 65q-49 -1 -105 -13t-98 -28q-4 -30 -7 -60t-3 -59q0 -154 62 -252t182 -98q53 1 95 21q41 20 71 56t46 82t17 97zM1093 461q1 -103 -35 -191t-102 -154t-156 -103q-92 -38 -202 -38q-130 1 -226 47t-158 126t-92 184t-30 221q0 186 62 344 q62 157 172 279t258 206t321 125l66 -233q-211 -50 -349 -156t-204 -254q41 17 95 28t101 11q111 -1 200 -31q88 -30 150 -88t96 -139q34 -82 33 -184z" horiz-adv-x="1177" glyph-name="six" unicode="6"/>
<glyph d="M457 0h-306l555 1251h-659v232h1032z" horiz-adv-x="1105" glyph-name="seven" unicode="7"/>
<glyph d="M820 383q0 51 -20 92t-50 74q-32 33 -75 59t-90 51q-47 -25 -90 -51t-76 -59t-51 -74t-19 -92q-1 -91 65 -147t171 -56q103 0 169 56t66 147zM796 1118q0 78 -54 136t-157 57q-105 1 -158 -57t-53 -136q0 -47 16 -84q16 -38 46 -68q28 -30 67 -54t82 -46q43 22 82 46 t67 54t46 68q16 37 16 84zM1089 373q0 -90 -38 -164q-39 -74 -105 -126t-158 -80t-203 -28t-203 27t-158 77q-66 49 -104 123q-37 74 -37 171q-1 80 23 140q24 59 64 107t92 82t108 64q-50 26 -96 60t-80 76t-54 96t-20 120q0 90 34 163t96 123t147 76t188 27q98 -1 184 -29 q87 -28 149 -79t98 -123t36 -158q0 -66 -20 -120t-56 -96q-35 -42 -80 -76t-96 -60q58 -30 110 -64t92 -82t63 -107q24 -60 24 -140z" horiz-adv-x="1171" glyph-name="eight" unicode="8"/>
<glyph d="M822 934q0 152 -62 252t-183 100q-54 0 -96 -22q-41 -22 -71 -57q-30 -36 -46 -82t-15 -97q0 -122 73 -188t187 -66q49 0 107 14t96 29q4 29 7 59t3 58zM1084 930q0 -186 -62 -344t-172 -280t-258 -207t-321 -124l-65 234q211 51 348 157t205 252q-41 -16 -95 -27 t-100 -11q-223 0 -352 118t-129 324q0 100 36 189q37 89 101 155t155 104t202 37q131 0 226 -46t157 -126t94 -184q30 -104 30 -221z" horiz-adv-x="1177" glyph-name="nine" unicode="9"/>
<glyph d="M464 158q0 -37 -14 -69q-14 -31 -36 -55q-24 -24 -54 -38t-66 -14t-66 14t-54 38t-36 55q-14 32 -14 69q0 36 14 68t36 56q24 24 54 38t66 14t66 -14t54 -38t36 -56q14 -32 14 -68zM464 825q0 -37 -14 -69t-36 -54q-24 -24 -54 -38t-66 -13q-36 -1 -66 13t-54 38t-36 54 q-14 32 -14 69t14 69t36 56q24 24 54 37q30 14 66 14t66 -14q30 -13 54 -37t36 -56q14 -32 14 -69z" horiz-adv-x="587" glyph-name="colon" unicode=":"/>
<glyph d="M182 -346h-186l180 582q29 40 72 69t102 29q60 0 88 -29t35 -69zM469 825q1 -37 -13 -69t-36 -54q-22 -24 -54 -38q-30 -14 -65 -13q-35 -1 -65 13t-54 38q-22 24 -36 54q-14 32 -13 69q-1 37 13 69t36 56t54 37q30 14 65 14t65 -14q30 -13 54 -37q22 -24 36 -56t13 -69z " horiz-adv-x="587" glyph-name="semicolon" unicode=";"/>
<glyph d="M120 573v185l838 420v-254l-592 -258l592 -258v-254z" horiz-adv-x="1077" glyph-name="less" unicode="&lt;"/>
<glyph d="M120 332v215h838v-215h-838zM120 784v215h838v-215h-838z" horiz-adv-x="1077" glyph-name="equal" unicode="="/>
<glyph d="M120 154v254l592 258l-592 258v254l838 -420v-185z" horiz-adv-x="1077" glyph-name="greater" unicode="&gt;"/>
<glyph d="M624 158q0 -37 -13 -69q-13 -31 -35 -55t-54 -38q-31 -14 -65 -14q-35 0 -66 14t-55 38t-36 55q-13 32 -13 69q0 36 13 68q12 32 36 56t55 38t66 14q34 0 65 -14q32 -14 54 -38t35 -56t13 -68zM907 1120q1 -78 -29 -139t-78 -109t-105 -80q-58 -34 -114 -55l-16 -219 h-221l-23 356q60 16 114 36t96 50q43 30 67 65q24 36 24 81q0 82 -53 127t-172 45q-65 0 -139 -18t-123 -43l-84 210q75 35 177 57t206 23q229 0 351 -97t122 -290z" horiz-adv-x="985" glyph-name="question" unicode="?"/>
<glyph d="M1173 852q-16 10 -48 20t-69 9q-116 0 -178 -86t-61 -256q0 -185 92 -271t248 -86h16v670zM1925 684q-1 -186 -59 -320t-158 -219q-100 -86 -235 -127q-134 -41 -288 -41q-286 -1 -444 145t-158 417q0 125 34 225q35 100 97 168t151 106q89 37 200 37q123 1 205 -35 t131 -79v-752q63 22 117 60q54 37 92 95t60 137t21 183q1 132 -37 244t-116 195t-196 131t-277 49q-173 -1 -309 -59t-230 -162t-144 -248t-51 -316q1 -170 55 -311t160 -243t262 -160t359 -58q177 0 331 48t255 120l114 -178q-121 -86 -295 -144t-405 -57q-249 -1 -447 71 t-336 202t-212 312q-74 181 -74 398q0 210 66 392t193 314q126 132 304 208t404 75q209 -1 369 -65t270 -176q108 -112 164 -262t57 -320z" horiz-adv-x="2023" glyph-name="at" unicode="@"/>
<glyph d="M694 1065q-10 31 -18 63t-11 58q-6 31 -10 59h-4q-4 -28 -10 -59q-3 -26 -11 -58t-18 -63l-149 -506h380zM1003 0l-104 346h-492l-104 -346h-289l475 1483h326l477 -1483h-289z" horiz-adv-x="1304" glyph-name="A" unicode="A"/>
<glyph d="M856 422q0 125 -90 182q-35 23 -78 35t-115 12h-178v-432q29 -10 76 -17t92 -7q293 0 293 227zM827 1075q-1 101 -65 157t-201 56q-47 0 -92 -7t-74 -17v-408h174q72 0 115 12t76 37q30 27 48 71t19 99zM1128 403q0 -200 -141 -314t-422 -114q-61 1 -123 7t-118 16 t-106 26t-87 31v1372q79 35 193 57t237 23q135 -1 235 -31t166 -84t98 -128t32 -162q0 -64 -18 -118t-51 -97q-32 -43 -72 -72t-83 -41v-4q43 -14 89 -44t84 -75q39 -45 63 -107t24 -141z" horiz-adv-x="1210" glyph-name="B" unicode="B"/>
<glyph d="M962 55q-48 -35 -128 -57t-179 -23q-115 -1 -219 47t-181 143t-121 239t-44 337t44 337t121 240q77 95 181 142t219 47q94 -1 176 -23t131 -57l-86 -231q-28 23 -78 41t-110 18q-137 0 -225 -129t-88 -383t88 -382t225 -128q60 -1 110 17t78 41z" horiz-adv-x="1030" glyph-name="C" unicode="C"/>
<glyph d="M874 741q0 138 -24 237q-24 98 -70 162q-44 64 -106 94t-135 30q-82 0 -129 -21v-1003q40 -21 129 -21q73 0 135 30q62 29 106 93q46 64 70 162t24 237zM1153 741q0 -374 -166 -570t-465 -196q-119 1 -222 23t-169 57v1372q68 35 171 57t220 23q299 1 465 -195t166 -571z " horiz-adv-x="1243" glyph-name="D" unicode="D"/>
<glyph d="M131 0v1483h758v-242h-486v-371h439v-237h-439v-391h486v-242h-758z" horiz-adv-x="976" glyph-name="E" unicode="E"/>
<glyph d="M403 1241v-371h433v-237h-433v-633h-272v1483h750v-242h-478z" horiz-adv-x="956" glyph-name="F" unicode="F"/>
<glyph d="M1128 55q-58 -32 -160 -56t-231 -24q-149 -1 -269 53t-204 154t-129 242q-45 141 -45 317q0 177 48 318t136 241t212 154q124 53 276 53q110 -1 206 -23t148 -57l-86 -225q-42 24 -108 42t-152 18q-84 0 -156 -31t-128 -95q-54 -64 -86 -162q-32 -97 -31 -231 q1 -133 29 -231t76 -164t112 -97q64 -32 131 -32q53 0 93 6t58 17v413h-217v219h477v-819z" horiz-adv-x="1253" glyph-name="G" unicode="G"/>
<glyph d="M846 0v633h-436v-633h-279v1483h279v-613h436v613h276v-1483h-276z" horiz-adv-x="1253" glyph-name="H" unicode="H"/>
<glyph d="M131 0v1483h279v-1483h-279z" horiz-adv-x="540" glyph-name="I" unicode="I"/>
<glyph d="M410 164q0 -284 -140 -432t-386 -181v248q112 29 180 115t68 250v1319h278v-1319z" horiz-adv-x="540" glyph-name="J" unicode="J"/>
<glyph d="M866 0l-452 737h-4v-737h-279v1483h279v-672h4l446 672h311l-477 -709l488 -774h-316z" horiz-adv-x="1200" glyph-name="K" unicode="K"/>
<glyph d="M131 0v1483h279v-1241h442v-242h-721z" horiz-adv-x="911" glyph-name="L" unicode="L"/>
<glyph d="M1380 0l-101 944q-4 35 -6 71t-4 64q-2 35 -4 66h-4q-4 -31 -12 -66l-16 -64t-19 -71l-269 -944h-178l-270 944q-9 35 -19 71t-16 64q-8 35 -12 66h-4q-2 -31 -4 -66q-2 -28 -4 -64t-7 -71l-100 -944h-258l178 1483h314l247 -867q11 -32 18 -65t13 -62q8 -32 12 -63h4 q2 31 11 63q4 29 12 62t18 65l246 867h313l179 -1483h-258z" horiz-adv-x="1712" glyph-name="M" unicode="M"/>
<glyph d="M960 0l-507 879q-19 30 -35 61t-25 55l-24 58h-5q0 -29 3 -62q0 -28 1 -62t1 -69v-860h-238v1483h238l497 -856q17 -31 32 -61l28 -56q14 -29 26 -57h4q-2 28 -2 63q-2 28 -2 64v71v832h238v-1483h-230z" horiz-adv-x="1320" glyph-name="N" unicode="N"/>
<glyph d="M913 741q1 115 -17 209t-52 161t-84 103q-52 36 -119 37q-68 -1 -119 -37t-85 -103t-51 -161t-17 -209t17 -209t51 -160t85 -104q51 -37 119 -37q67 0 119 37q52 38 84 104q34 66 52 160t17 209zM1192 741q0 -161 -34 -301t-102 -244q-68 -102 -172 -162t-243 -59 q-139 -1 -243 59t-172 162t-102 244q-34 140 -34 301q0 163 34 303t102 242t172 162q104 59 243 59t243 -59q104 -60 172 -162t102 -242t34 -303z" glyph-name="O" unicode="O"/>
<glyph d="M819 1034q0 252 -272 252q-41 0 -80 -6t-64 -16v-469q45 -11 117 -11q148 0 224 67t75 183zM1092 1032q0 -100 -35 -186t-105 -148t-176 -98q-104 -35 -242 -35q-34 0 -71 3t-60 7v-575h-272v1427q81 37 185 59t227 21q269 0 409 -129t140 -346z" horiz-adv-x="1157" glyph-name="P" unicode="P"/>
<glyph d="M913 741q1 115 -17 209t-52 161t-84 103q-52 36 -119 37q-68 -1 -119 -37t-85 -103t-51 -161t-17 -209t17 -209t51 -160t85 -104q51 -37 119 -37q67 0 119 37q52 38 84 104q34 66 52 160t17 209zM983 -401l-227 389q-56 -13 -115 -13q-139 -1 -243 59t-172 162t-102 244 q-34 140 -34 301q0 163 34 303t102 242t172 162q104 59 243 59t243 -59q104 -60 172 -162t102 -242t34 -303q0 -206 -56 -374t-165 -271l223 -321z" glyph-name="Q" unicode="Q"/>
<glyph d="M823 1044q1 116 -61 180t-197 64q-45 0 -88 -7t-72 -17v-457h148q131 -1 201 57t69 180zM881 0l-179 455q-28 67 -73 107t-119 40h-105v-602h-274v1427q85 39 197 59t231 21q269 -1 403 -119t134 -327q0 -79 -22 -141t-62 -107t-90 -75t-105 -46v-4q57 -33 97 -89 t69 -128l190 -471h-292z" horiz-adv-x="1218" glyph-name="R" unicode="R"/>
<glyph d="M923 430q0 -102 -33 -185q-34 -83 -96 -143t-152 -94q-90 -33 -204 -33q-106 1 -206 23t-159 57l90 250q47 -29 118 -49t142 -20q101 0 159 49t58 131q0 40 -15 70t-42 54t-63 44t-74 39q-60 28 -124 65t-115 89q-52 52 -86 123t-34 169t33 179q32 80 92 138t146 90 t192 31q105 -1 192 -23t140 -57l-86 -233q-38 22 -102 44t-132 22q-92 0 -144 -48t-52 -127q0 -38 16 -68q16 -29 44 -55t64 -46t75 -42q57 -30 121 -66t116 -87q53 -51 87 -122t34 -169z" horiz-adv-x="1007" glyph-name="S" unicode="S"/>
<glyph d="M639 1241v-1241h-277v1241h-301v242h877v-242h-299z" horiz-adv-x="999" glyph-name="T" unicode="T"/>
<glyph d="M1104 438q0 -110 -37 -195t-103 -143t-154 -90q-89 -30 -194 -30q-104 0 -192 30t-154 90q-66 58 -102 143q-37 85 -37 195v1045h279v-1047q0 -98 60 -154t146 -55q88 -1 148 55t61 154v1047h279v-1045z" horiz-adv-x="1234" glyph-name="U" unicode="U"/>
<glyph d="M755 0h-293l-438 1483h299l242 -965q8 -34 15 -72t13 -69q9 -37 13 -72h4q2 35 10 72q4 31 12 69t19 72l239 965h301z" horiz-adv-x="1214" glyph-name="V" unicode="V"/>
<glyph d="M1399 0h-271l-194 860q-10 37 -16 74t-11 67q-6 37 -8 70h-4q-4 -33 -10 -70q-5 -30 -11 -67t-14 -74l-194 -860h-269l-352 1483h279l186 -932q6 -35 11 -69t9 -62q7 -35 11 -66h4q2 31 8 66q4 28 9 62t13 69l207 932h230l207 -932q8 -35 14 -69t10 -62q6 -35 8 -66h2 q4 31 11 66q4 28 9 62t13 69l184 932h279z" horiz-adv-x="1794" glyph-name="W" unicode="W"/>
<glyph d="M860 0l-266 539h-5l-270 -539h-303l410 768l-381 715h303l241 -486h5l239 486h303l-381 -715l410 -768h-305z" horiz-adv-x="1181" glyph-name="X" unicode="X"/>
<glyph d="M712 582v-582h-276v582l-422 901h299l258 -611h4l262 611h299z" horiz-adv-x="1150" glyph-name="Y" unicode="Y"/>
<glyph d="M40 0l516 1241h-469v242h848l-514 -1241h518v-242h-899z" horiz-adv-x="1019" glyph-name="Z" unicode="Z"/>
<glyph d="M147 -399v2007h516v-217h-254v-1573h254v-217h-516z" horiz-adv-x="751" glyph-name="bracketleft" unicode="["/>
<glyph d="M712 -414l-651 1983l252 78l653 -1985z" horiz-adv-x="952" glyph-name="backslash" unicode="\"/>
<glyph d="M88 -399v217h254v1573h-254v217h516v-2007h-516z" horiz-adv-x="751" glyph-name="bracketright" unicode="]"/>
<glyph d="M889 786l-293 377l-293 -377l-166 140l338 430q49 59 121 59q71 0 119 -59l340 -430z" horiz-adv-x="1191" glyph-name="asciicircum" unicode="^"/>
<glyph d="M-8 -444v190h1180v-190h-1180z" horiz-adv-x="1163" glyph-name="underscore" unicode="_"/>
<glyph d="M292 1231l-213 270q10 29 41 45t70 17q38 -1 78 -15t69 -47l137 -270h-182z" horiz-adv-x="673" glyph-name="grave" unicode="`"/>
<glyph d="M692 532q-74 -4 -142 -11t-118 -27t-80 -58q-30 -37 -31 -98q-1 -78 57 -121t162 -43q43 0 86 6t66 17v335zM945 55q-30 -17 -73 -31q-44 -14 -96 -25t-110 -17t-118 -7q-241 -1 -359 93t-118 264q0 112 52 183t138 112t198 59t233 25v57q0 86 -54 122t-145 36 q-76 0 -159 -20t-138 -46l-68 189q68 27 172 53t222 26q204 0 314 -91t109 -302v-680z" horiz-adv-x="1062" glyph-name="a" unicode="a"/>
<glyph d="M765 559q-1 164 -65 255t-179 91q-36 0 -73 -8t-62 -20v-660q20 -10 54 -16t71 -6q115 0 185 90t69 274zM1035 582q0 -312 -143 -460t-397 -147q-111 0 -210 24t-165 56v1553h266v-527q36 17 88 27t99 10q104 0 189 -36q86 -36 146 -105q60 -70 94 -169t33 -226z" horiz-adv-x="1118" glyph-name="b" unicode="b"/>
<glyph d="M837 51q-55 -35 -121 -55t-160 -21q-92 0 -178 35q-86 34 -152 106t-106 181q-39 109 -39 256t39 256q40 109 106 179t152 106q86 34 178 34q94 0 162 -20t119 -55l-84 -201q-64 47 -158 47q-99 0 -167 -85t-68 -259q0 -87 18 -151t51 -107t75 -65t91 -21q92 0 158 49z " horiz-adv-x="899" glyph-name="c" unicode="c"/>
<glyph d="M728 883q-16 8 -52 14t-71 6q-127 0 -191 -98t-65 -256q-1 -168 65 -261t191 -93q35 0 71 6t52 16v666zM999 55q-59 -32 -163 -56t-225 -24q-258 -1 -394 149t-136 421q-1 127 31 233t94 180t156 115t215 41q43 0 85 -6t66 -16v516h271v-1553z" horiz-adv-x="1118" glyph-name="d" unicode="d"/>
<glyph d="M769 676q0 126 -54 188t-149 62q-104 0 -170 -79t-71 -235zM1029 627v-47t-4 -48l-682 -96q19 -123 97 -182t196 -59q80 0 160 19t135 50l76 -209q-67 -35 -171 -57t-220 -23q-132 0 -231 42t-167 119q-68 78 -102 184q-35 106 -35 233t34 233q33 106 97 182t155 118 t206 42q110 0 195 -36q86 -36 144 -102t88 -158t29 -205z" horiz-adv-x="1112" glyph-name="e" unicode="e"/>
<glyph d="M679 1391q-4 0 -12 1t-22 1q-81 0 -135 -38t-54 -128v-123h205v-209h-205v-895h-264v895h-131v209h131v123q0 100 30 173t84 120q54 46 128 70t159 24q21 0 45 -1t41 -5v-217z" horiz-adv-x="727" glyph-name="f" unicode="f"/>
<glyph d="M732 891q-20 10 -55 16t-76 6q-110 1 -181 -79t-71 -254q1 -164 67 -245t177 -81q37 0 77 9t62 22v606zM999 14q0 -116 -33 -206q-32 -90 -94 -148q-62 -59 -149 -90t-193 -31q-128 1 -230 25t-174 61l78 219q53 -28 131 -48t168 -19q119 1 174 61t55 176v68 q-39 -19 -91 -29t-105 -10q-101 0 -185 36q-84 35 -143 103t-93 165t-34 222q0 139 38 245q39 106 109 176t170 104t226 34q112 0 210 -22t165 -57v-1035z" horiz-adv-x="1118" glyph-name="g" unicode="g"/>
<glyph d="M732 0v721q0 92 -50 137t-142 45q-41 0 -82 -11t-72 -30v-862h-266v1608h266v-537q48 23 106 37t117 14q189 0 291 -95t103 -277v-750h-271z" horiz-adv-x="1122" glyph-name="h" unicode="h"/>
<glyph d="M122 0v1104h269v-1104h-269zM411 1432q0 -64 -45 -108t-108 -44q-66 0 -110 44t-44 108q0 63 44 106t110 43q63 0 108 -43t45 -106z" horiz-adv-x="516" glyph-name="i" unicode="i"/>
<glyph d="M391 139q-1 -153 -39 -261t-105 -177q-67 -71 -154 -107t-185 -51v232q43 15 82 41q38 26 68 69t48 105t17 149v965h268v-965zM412 1432q0 -64 -45 -108t-109 -44q-65 0 -109 44t-44 108q0 63 44 106t109 43q64 0 109 -43t45 -106z" horiz-adv-x="516" glyph-name="j" unicode="j"/>
<glyph d="M771 0l-381 557h-4v-557h-264v1608h264v-987h4l350 483h310l-383 -516l407 -588h-303z" horiz-adv-x="1089" glyph-name="k" unicode="k"/>
<glyph d="M122 0v1608h268v-1608h-268z" horiz-adv-x="516" glyph-name="l" unicode="l"/>
<glyph d="M1320 0v735q0 82 -47 126t-127 44q-98 0 -158 -55v-850h-270v748q0 73 -49 115t-135 42q-88 0 -148 -26v-879h-266v1049q80 35 182 57t215 22q129 0 212 -34t130 -78q49 40 143 76t212 36q178 0 277 -98t99 -266v-764h-270z" horiz-adv-x="1708" glyph-name="m" unicode="m"/>
<glyph d="M732 0v727q0 84 -47 131t-139 47q-47 0 -90 -8t-70 -18v-879h-266v1049q84 35 188 57t234 22q237 0 349 -96t112 -276v-756h-271z" horiz-adv-x="1122" glyph-name="n" unicode="n"/>
<glyph d="M773 555q0 166 -52 260t-159 94q-108 0 -160 -94t-53 -260q1 -166 53 -259t160 -93q107 0 159 93t52 259zM1042 553q0 -123 -32 -229t-94 -184q-62 -77 -150 -121q-89 -44 -204 -44q-116 0 -206 44t-150 121q-62 78 -94 184t-31 229q-1 123 31 229t94 182t150 120 q90 44 206 44q115 0 204 -44q88 -44 150 -120t94 -182t32 -229z" horiz-adv-x="1124" glyph-name="o" unicode="o"/>
<glyph d="M765 557q1 168 -65 261t-189 93q-37 0 -71 -6t-54 -16v-668q16 -8 54 -14t73 -6q62 1 109 27q46 26 78 73t48 113t17 143zM1035 557q1 -127 -31 -233t-94 -180t-156 -115q-93 -41 -214 -41q-43 0 -86 7t-68 17v-452h-266v1489q58 31 162 55t225 24q258 0 393 -150 t135 -421z" horiz-adv-x="1118" glyph-name="p" unicode="p"/>
<glyph d="M728 889q-18 10 -52 16t-71 6q-116 0 -186 -90t-70 -274q1 -164 65 -255t179 -91q37 0 74 8t61 20v660zM728 -440v463q-35 -17 -87 -27t-99 -10q-103 0 -188 36t-145 105q-60 70 -94 169t-34 226q1 310 145 458t398 148q110 0 210 -24t165 -55v-1489h-271z" horiz-adv-x="1118" glyph-name="q" unicode="q"/>
<glyph d="M640 887q-53 16 -121 16q-37 0 -73 -6t-60 -16v-881h-266v1049q82 35 192 57t240 22q80 0 137 -10z" horiz-adv-x="735" glyph-name="r" unicode="r"/>
<glyph d="M833 317q-1 -155 -109 -249t-321 -93q-99 0 -191 24t-151 56l86 213q20 -12 51 -26t65 -23q35 -10 69 -16t63 -6q72 1 116 33t44 87q-1 61 -47 93t-117 59q-49 18 -103 43q-54 26 -99 62t-73 92t-28 137q0 147 101 236t288 89q104 0 185 -22t142 -57l-84 -191 q-34 24 -94 44t-114 20q-72 0 -111 -33t-39 -82q0 -65 45 -95t115 -57q52 -19 108 -43t101 -62t73 -94t29 -139z" horiz-adv-x="909" glyph-name="s" unicode="s"/>
<glyph d="M653 14q-25 -12 -69 -21t-93 -9q-153 0 -227 87t-74 261v563h-135v209h135v246l264 80v-326h199v-209h-199v-545q0 -67 35 -94t86 -27q23 -1 43 5t35 12v-232z" horiz-adv-x="722" glyph-name="t" unicode="t"/>
<glyph d="M988 55q-69 -35 -184 -57t-240 -23q-220 -1 -332 97t-112 313v719h266v-725q0 -174 178 -174q54 0 94 7t62 17v875h268v-1049z" horiz-adv-x="1107" glyph-name="u" unicode="u"/>
<glyph d="M722 0h-309l-385 1104h303l195 -688q18 -68 28 -121q6 -31 11 -57h4q2 26 10 57q4 27 12 57t19 64l194 688h301z" horiz-adv-x="1136" glyph-name="v" unicode="v"/>
<glyph d="M1302 0h-278l-164 629q-8 28 -12 57t-8 53q-5 29 -9 56h-4q-2 -27 -8 -56q-4 -24 -10 -53t-12 -57l-164 -629h-277l-309 1104h270l150 -676q6 -30 11 -62t9 -59q4 -31 9 -59h4q4 28 10 59q4 27 10 59t14 62l172 676h246l170 -676q8 -30 14 -62t11 -59q6 -31 10 -59h4 q4 28 8 59q5 27 9 59t12 62l151 676h269z" horiz-adv-x="1656" glyph-name="w" unicode="w"/>
<glyph d="M762 0l-220 383h-4l-217 -383h-307l360 571l-331 533h303l192 -352h4l195 352h301l-330 -533l361 -571h-307z" horiz-adv-x="1083" glyph-name="x" unicode="x"/>
<glyph d="M550 -440h-280l157 440l-399 1104h303l199 -694q10 -31 16 -63t10 -56q7 -29 9 -55h4q2 26 8 55q4 24 11 56t18 63l198 694h301z" horiz-adv-x="1134" glyph-name="y" unicode="y"/>
<glyph d="M49 0l426 885h-391v219h766l-426 -885h434v-219h-809z" horiz-adv-x="931" glyph-name="z" unicode="z"/>
<glyph d="M571 -399q-193 0 -285 100t-92 279q0 51 5 91q5 39 10 75t11 74t5 87q0 84 -43 132t-115 53v225q72 4 115 52t43 132q1 49 -5 87t-11 74t-10 75t-5 92q0 179 92 279t285 100h86v-217h-43q-74 0 -116 -40t-42 -122q0 -53 5 -92t11 -75t10 -74q5 -38 5 -87q1 -117 -51 -191 t-144 -104v-4q92 -30 144 -104t51 -191q0 -49 -5 -87q-4 -38 -10 -74t-11 -75q-5 -40 -5 -91q0 -82 42 -122t116 -40h43v-217h-86z" horiz-adv-x="759" glyph-name="braceleft" unicode="{"/>
<glyph d="M126 -440v2048h268v-2048h-268z" horiz-adv-x="522" glyph-name="bar" unicode="|"/>
<glyph d="M692 492q-72 -5 -116 -53t-44 -132q0 -49 5 -87t11 -74t12 -75q5 -40 5 -91q1 -179 -93 -279t-286 -100h-84v217h43q74 0 116 40t42 122q1 51 -5 91q-6 39 -12 75t-11 74t-5 87q0 117 52 191t145 104v4q-93 30 -145 104t-52 191q0 49 5 87t11 74t12 75t5 92q0 82 -42 122 t-116 40h-43v217h84q192 0 286 -100t93 -279q0 -53 -5 -92q-6 -39 -12 -75t-11 -74t-5 -87q0 -84 44 -132t116 -52v-225z" horiz-adv-x="759" glyph-name="braceright" unicode="}"/>
<glyph d="M1057 819q-19 -108 -89 -179t-182 -71q-55 1 -99 19t-84 40t-80 42q-40 18 -85 18q-59 0 -104 -36t-66 -93l-137 105q20 108 92 178t182 71q56 0 100 -18t84 -41q39 -23 77 -41t86 -18q59 -1 105 35t67 94z" horiz-adv-x="1191" glyph-name="asciitilde" unicode="~"/>
<glyph d="M270 1374q0 -53 -39 -91t-94 -38q-53 0 -92 38t-39 91t39 90t92 37q55 0 94 -37t39 -90zM668 1374q0 -53 -38 -91t-94 -38q-53 0 -91 38t-38 91t38 90t91 37q56 0 94 -37t38 -90z" horiz-adv-x="673" glyph-name="dieresis" unicode="¨"/>
<glyph d="M1077 377q-35 -23 -89 -39t-118 -16q-78 0 -144 26t-116 79q-50 52 -78 132t-28 189q0 106 28 186t78 133t116 79t144 25q64 0 118 -16t89 -39l-64 -127q-22 17 -56 27t-73 10q-40 0 -76 -16t-65 -48q-29 -34 -45 -86t-16 -126t16 -126t45 -86t65 -50t76 -15q39 1 73 11 t56 26zM1423 741q0 129 -43 240t-120 193q-78 82 -184 128q-106 48 -230 48q-126 0 -232 -48t-183 -128q-77 -82 -120 -193t-43 -240t43 -239t120 -193q77 -82 183 -129t232 -47q124 0 230 47t184 129q77 83 120 193t43 239zM1593 741q-1 -161 -57 -301t-156 -242 q-100 -104 -236 -164t-298 -59q-162 -1 -300 59t-236 164q-100 104 -156 242q-56 140 -56 301t56 301t156 244q98 104 236 162q138 59 300 59t298 -59q136 -58 236 -162t156 -244t57 -301z" horiz-adv-x="1691" glyph-name="copyright" unicode="©"/>
<glyph d="M745 1077q0 92 -112 92q-17 0 -35 -1t-31 -5v-178h62q116 0 116 92zM768 645l-78 193q-10 28 -28 40t-48 13h-47v-246h-127v592q39 17 88 25t101 8q117 0 181 -48t64 -139q0 -59 -34 -97t-80 -54v-4q39 -21 57 -72l92 -211h-141zM1069 940q0 94 -32 175t-88 141t-134 96 q-78 34 -170 34t-170 -34t-134 -96q-56 -60 -88 -141t-32 -175t32 -175t88 -141t134 -96q78 -34 170 -34t170 34t134 96q56 60 88 141t32 175zM1200 940q0 -120 -42 -224t-116 -180t-176 -121q-102 -44 -221 -44q-121 0 -223 44q-102 45 -174 121q-74 76 -116 180t-42 224 t42 224t116 180t174 121q102 44 223 44q119 0 221 -44q102 -45 176 -121t116 -180t42 -224z" horiz-adv-x="1290" glyph-name="registered" unicode="®"/>
<glyph d="M382 1231h-184l137 270q29 33 70 47t80 15q39 -1 69 -17t39 -45z" horiz-adv-x="673" glyph-name="acute" unicode="´"/>
<glyph d="M862 -440v1724q-35 12 -88 20t-119 9h-26v-1753h-191v1042q-154 34 -250 146t-96 292q0 117 39 205q39 89 109 147t166 86t212 29q154 1 260 -23t179 -57v-1867h-195z" horiz-adv-x="1196" glyph-name="paragraph" unicode="¶"/>
<glyph d="M1361 717q-6 -15 -14 -31q-7 -14 -16 -30t-19 -33l-185 -285h234v270v38t2 36q0 18 2 35h-4zM294 614v672q-42 -22 -106 -42t-117 -27l-31 135q41 6 83 18t81 30q40 18 72 38t55 45h135v-869h-172zM529 -33l-133 74l752 1475l131 -74zM1510 213v-213h-155v213h-375v125 l350 530h180v-530h86v-125h-86z" horiz-adv-x="1687" glyph-name="onequarter" unicode="¼"/>
<glyph d="M294 614v672q-42 -22 -106 -42t-117 -27l-31 135q41 6 83 18t81 30q40 18 72 38t55 45h135v-869h-172zM482 -33l-131 74l750 1475l133 -74zM984 0l365 465q27 35 45 69t18 74q0 58 -38 94t-111 37q-45 0 -95 -10t-92 -29l-47 136q55 22 120 36t126 13q155 0 235 -73 t80 -196q0 -70 -34 -128t-72 -101l-211 -242h332v-145h-621z" horiz-adv-x="1687" glyph-name="onehalf" unicode="½"/>
<glyph d="M635 864q0 -122 -86 -194t-242 -72q-67 0 -135 14t-123 35l53 135q40 -16 94 -26t111 -11q78 0 118 32t40 87q1 62 -65 98t-171 35h-16v129q111 6 167 42t56 89q0 97 -131 97q-45 0 -95 -10t-91 -29l-50 135q59 23 125 36t134 13q140 -1 210 -63t70 -166q0 -64 -40 -111 t-95 -74v-4q65 -23 113 -77t49 -140zM1362 717q-6 -15 -15 -31q-6 -14 -15 -30t-19 -33l-185 -285h234v270v38t2 36q0 18 2 35h-4zM571 -33l-131 74l752 1475l131 -74zM1511 213v-213h-155v213h-375v125l350 530h180v-530h86v-125h-86z" horiz-adv-x="1687" glyph-name="threequarters" unicode="¾"/>
<glyph d="M635 1558l-239 270q19 62 114 62t136 -62l118 -269zM694 1065q-10 31 -18 63t-11 58q-6 31 -10 59h-4q-4 -28 -10 -59q-3 -26 -11 -58t-18 -63l-149 -506h380zM1003 0l-104 346h-492l-104 -346h-289l475 1483h326l477 -1483h-289z" horiz-adv-x="1304" glyph-name="Agrave" unicode="À"/>
<glyph d="M540 1559l118 269q40 62 136 62q95 0 114 -62l-239 -270zM694 1065q-10 31 -18 63t-11 58q-6 31 -10 59h-4q-4 -28 -10 -59q-3 -26 -11 -58t-18 -63l-149 -506h380zM1003 0l-104 346h-492l-104 -346h-289l475 1483h326l477 -1483h-289z" horiz-adv-x="1304" glyph-name="Aacute" unicode="Á"/>
<glyph d="M939 1801q1 -83 -45 -150t-96 -74q-9 -1 -18 -1q-45 0 -102 28q-48 24 -104 46q-21 8 -37 9q-27 0 -45 -23q-28 -36 -36 -63l-88 25q4 81 41 144t109 76q9 2 19 2q25 0 58 -10q45 -14 85 -38q40 -23 72 -28t51 9q20 14 41 66zM694 1065q-10 31 -18 63t-11 58 q-6 31 -10 59h-4q-4 -28 -10 -59q-3 -26 -11 -58t-18 -63l-149 -506h380zM1003 0l-104 346h-492l-104 -346h-289l475 1483h326l477 -1483h-289z" horiz-adv-x="1304" glyph-name="Atilde" unicode="Ã"/>
<glyph d="M887 1533l-230 178l-231 -179l-90 84l222 223q39 43 96 43q55 0 94 -43l222 -223zM694 1065q-10 31 -18 63t-11 58q-6 31 -10 59h-4q-4 -28 -10 -59q-3 -26 -11 -58t-18 -63l-149 -506h380zM1003 0l-104 346h-492l-104 -346h-289l475 1483h326l477 -1483h-289z" horiz-adv-x="1304" glyph-name="Acircumflex" unicode="Â"/>
<glyph d="M481 1558l-240 270q20 62 115 62t136 -62l118 -269zM131 0v1483h758v-242h-486v-371h439v-237h-439v-391h486v-242h-758z" horiz-adv-x="976" glyph-name="Egrave" unicode="È"/>
<glyph d="M395 1559l119 269q40 62 135 62q96 0 115 -62l-239 -270zM131 0v1483h758v-242h-486v-371h439v-237h-439v-391h486v-242h-758z" horiz-adv-x="976" glyph-name="Eacute" unicode="É"/>
<glyph d="M744 1533l-230 178l-231 -179l-90 84l222 223q39 43 96 43q54 0 94 -43l222 -223zM131 0v1483h758v-242h-486v-371h439v-237h-439v-391h486v-242h-758z" horiz-adv-x="976" glyph-name="Ecircumflex" unicode="Ê"/>
<glyph d="M267 1558l-239 270q19 62 115 62q95 0 135 -62l119 -269zM132 0v1483h278v-1483h-278z" horiz-adv-x="540" glyph-name="Igrave" unicode="Ì"/>
<glyph d="M171 1559l119 269q40 62 135 62q96 0 115 -62l-239 -270zM131 0v1483h279v-1483h-279z" horiz-adv-x="540" glyph-name="Iacute" unicode="Í"/>
<glyph d="M618 1558l-240 270q20 62 115 62t136 -62l118 -269zM913 741q1 115 -17 209t-52 161t-84 103q-52 36 -119 37q-68 -1 -119 -37t-85 -103t-51 -161t-17 -209t17 -209t51 -160t85 -104q51 -37 119 -37q67 0 119 37q52 38 84 104q34 66 52 160t17 209zM1192 741 q0 -161 -34 -301t-102 -244q-68 -102 -172 -162t-243 -59q-139 -1 -243 59t-172 162t-102 244q-34 140 -34 301q0 163 34 303t102 242t172 162q104 59 243 59t243 -59q104 -60 172 -162t102 -242t34 -303z" glyph-name="Ograve" unicode="Ò"/>
<glyph d="M514 1559l119 269q40 62 135 62q96 0 115 -62l-239 -270zM913 741q1 115 -17 209t-52 161t-84 103q-52 36 -119 37q-68 -1 -119 -37t-85 -103t-51 -161t-17 -209t17 -209t51 -160t85 -104q51 -37 119 -37q67 0 119 37q52 38 84 104q34 66 52 160t17 209zM1192 741 q0 -161 -34 -301t-102 -244q-68 -102 -172 -162t-243 -59q-139 -1 -243 59t-172 162t-102 244q-34 140 -34 301q0 163 34 303t102 242t172 162q104 59 243 59t243 -59q104 -60 172 -162t102 -242t34 -303z" glyph-name="Oacute" unicode="Ó"/>
<glyph d="M929 1801q1 -83 -45 -150t-96 -74q-9 -1 -18 -1q-45 0 -102 28q-48 24 -104 46q-21 8 -37 9q-27 0 -45 -23q-28 -36 -36 -63l-88 25q4 81 41 144t109 76q9 2 19 2q25 0 58 -10q45 -14 85 -38q40 -23 72 -28t51 9q20 14 41 66zM913 741q1 115 -17 209t-52 161t-84 103 q-52 36 -119 37q-68 -1 -119 -37t-85 -103t-51 -161t-17 -209t17 -209t51 -160t85 -104q51 -37 119 -37q67 0 119 37q52 38 84 104q34 66 52 160t17 209zM1192 741q0 -161 -34 -301t-102 -244q-68 -102 -172 -162t-243 -59q-139 -1 -243 59t-172 162t-102 244 q-34 140 -34 301q0 163 34 303t102 242t172 162q104 59 243 59t243 -59q104 -60 172 -162t102 -242t34 -303z" glyph-name="Otilde" unicode="Õ"/>
<glyph d="M875 1533l-230 178l-231 -179l-90 84l222 223q39 43 96 43q54 0 94 -43l222 -223zM913 741q1 115 -17 209t-52 161t-84 103q-52 36 -119 37q-68 -1 -119 -37t-85 -103t-51 -161t-17 -209t17 -209t51 -160t85 -104q51 -37 119 -37q67 0 119 37q52 38 84 104q34 66 52 160 t17 209zM1192 741q0 -161 -34 -301t-102 -244q-68 -102 -172 -162t-243 -59q-139 -1 -243 59t-172 162t-102 244q-34 140 -34 301q0 163 34 303t102 242t172 162q104 59 243 59t243 -59q104 -60 172 -162t102 -242t34 -303z" glyph-name="Ocircumflex" unicode="Ô"/>
<glyph d="M618 1558l-240 270q20 62 115 62t136 -62l118 -269zM1104 438q0 -110 -37 -195t-103 -143t-154 -90q-89 -30 -194 -30q-104 0 -192 30t-154 90q-66 58 -102 143q-37 85 -37 195v1045h279v-1047q0 -98 60 -154t146 -55q88 -1 148 55t61 154v1047h279v-1045z" horiz-adv-x="1234" glyph-name="Ugrave" unicode="Ù"/>
<glyph d="M514 1559l119 269q40 62 135 62q96 0 115 -62l-239 -270zM1104 438q0 -110 -37 -195t-103 -143t-154 -90q-89 -30 -194 -30q-104 0 -192 30t-154 90q-66 58 -102 143q-37 85 -37 195v1045h279v-1047q0 -98 60 -154t146 -55q88 -1 148 55t61 154v1047h279v-1045z" horiz-adv-x="1234" glyph-name="Uacute" unicode="Ú"/>
<glyph d="M514 1559l119 269q40 62 135 62t115 -62l-239 -270zM712 582v-582h-276v582l-422 901h299l258 -611h4l262 611h299z" horiz-adv-x="1150" glyph-name="Yacute" unicode="Ý"/>
<glyph d="M497 1199l-239 270q19 62 115 62q95 0 135 -62l119 -269zM692 532q-74 -4 -142 -11t-118 -27t-80 -58q-30 -37 -31 -98q-1 -78 57 -121t162 -43q43 0 86 6t66 17v335zM945 55q-30 -17 -73 -31q-44 -14 -96 -25t-110 -17t-118 -7q-241 -1 -359 93t-118 264q0 112 52 183 t138 112t198 59t233 25v57q0 86 -54 122t-145 36q-76 0 -159 -20t-138 -46l-68 189q68 27 172 53t222 26q204 0 314 -91t109 -302v-680z" horiz-adv-x="1062" glyph-name="agrave" unicode="à"/>
<glyph d="M403 1200l118 269q41 62 136 62t115 -62l-240 -270zM692 532q-74 -4 -142 -11t-118 -27t-80 -58q-30 -37 -31 -98q-1 -78 57 -121t162 -43q43 0 86 6t66 17v335zM945 55q-30 -17 -73 -31q-44 -14 -96 -25t-110 -17t-118 -7q-241 -1 -359 93t-118 264q0 112 52 183 t138 112t198 59t233 25v57q0 86 -54 122t-145 36q-76 0 -159 -20t-138 -46l-68 189q68 27 172 53t222 26q204 0 314 -91t109 -302v-680z" horiz-adv-x="1062" glyph-name="aacute" unicode="á"/>
<glyph d="M809 1425q1 -83 -44 -150t-96 -74q-9 -1 -18 -1q-45 0 -102 28q-49 24 -105 46q-21 8 -37 9q-28 0 -45 -23q-27 -36 -36 -63l-88 25q4 81 42 144t108 76q9 2 20 2q26 0 58 -10q46 -14 85 -38q39 -23 71 -28t52 9t40 66zM692 532q-74 -4 -142 -11t-118 -27t-80 -58 q-30 -37 -31 -98q-1 -78 57 -121t162 -43q43 0 86 6t66 17v335zM945 55q-30 -17 -73 -31q-44 -14 -96 -25t-110 -17t-118 -7q-241 -1 -359 93t-118 264q0 112 52 183t138 112t198 59t233 25v57q0 86 -54 122t-145 36q-76 0 -159 -20t-138 -46l-68 189q68 27 172 53t222 26 q204 0 314 -91t109 -302v-680z" horiz-adv-x="1062" glyph-name="atilde" unicode="ã"/>
<glyph d="M744 1173l-230 178l-230 -179l-91 84l222 223q40 43 96 43q55 0 94 -43l222 -223zM692 532q-74 -4 -142 -11t-118 -27t-80 -58q-30 -37 -31 -98q-1 -78 57 -121t162 -43q43 0 86 6t66 17v335zM945 55q-30 -17 -73 -31q-44 -14 -96 -25t-110 -17t-118 -7q-241 -1 -359 93 t-118 264q0 112 52 183t138 112t198 59t233 25v57q0 86 -54 122t-145 36q-76 0 -159 -20t-138 -46l-68 189q68 27 172 53t222 26q204 0 314 -91t109 -302v-680z" horiz-adv-x="1062" glyph-name="acircumflex" unicode="â"/>
<glyph d="M537 1199l-239 270q19 62 114 62t136 -62l118 -269zM769 676q0 126 -54 188t-149 62q-104 0 -170 -79t-71 -235zM1029 627v-47t-4 -48l-682 -96q19 -123 97 -182t196 -59q80 0 160 19t135 50l76 -209q-67 -35 -171 -57t-220 -23q-132 0 -231 42t-167 119q-68 78 -102 184 q-35 106 -35 233t34 233q33 106 97 182t155 118t206 42q110 0 195 -36q86 -36 144 -102t88 -158t29 -205z" horiz-adv-x="1112" glyph-name="egrave" unicode="è"/>
<glyph d="M458 1200l118 269q40 62 136 62q95 0 114 -62l-239 -270zM769 676q0 126 -54 188t-149 62q-104 0 -170 -79t-71 -235zM1029 627v-47t-4 -48l-682 -96q19 -123 97 -182t196 -59q80 0 160 19t135 50l76 -209q-67 -35 -171 -57t-220 -23q-132 0 -231 42t-167 119 q-68 78 -102 184q-35 106 -35 233t34 233q33 106 97 182t155 118t206 42q110 0 195 -36q86 -36 144 -102t88 -158t29 -205z" horiz-adv-x="1112" glyph-name="eacute" unicode="é"/>
<glyph d="M814 1173l-230 178l-231 -179l-90 84l222 223q39 43 96 43q55 0 94 -43l222 -223zM769 676q0 126 -54 188t-149 62q-104 0 -170 -79t-71 -235zM1029 627v-47t-4 -48l-682 -96q19 -123 97 -182t196 -59q80 0 160 19t135 50l76 -209q-67 -35 -171 -57t-220 -23 q-132 0 -231 42t-167 119q-68 78 -102 184q-35 106 -35 233t34 233q33 106 97 182t155 118t206 42q110 0 195 -36q86 -36 144 -102t88 -158t29 -205z" horiz-adv-x="1112" glyph-name="ecircumflex" unicode="ê"/>
<glyph d="M247 1199l-239 270q19 62 115 62q95 0 135 -62l119 -269zM123 0v1104h269v-1104h-269z" horiz-adv-x="516" glyph-name="igrave" unicode="ì"/>
<glyph d="M159 1200l118 269q41 62 136 62t114 -62l-239 -270zM123 0v1104h268v-1104h-268z" horiz-adv-x="516" glyph-name="iacute" unicode="í"/>
<glyph d="M520 1199l-239 270q19 62 114 62t136 -62l118 -269zM773 555q0 166 -52 260t-159 94q-108 0 -160 -94t-53 -260q1 -166 53 -259t160 -93q107 0 159 93t52 259zM1042 553q0 -123 -32 -229t-94 -184q-62 -77 -150 -121q-89 -44 -204 -44q-116 0 -206 44t-150 121 q-62 78 -94 184t-31 229q-1 123 31 229t94 182t150 120q90 44 206 44q115 0 204 -44q88 -44 150 -120t94 -182t32 -229z" horiz-adv-x="1124" glyph-name="ograve" unicode="ò"/>
<glyph d="M443 1200l118 269q40 62 136 62q95 0 114 -62l-239 -270zM773 555q0 166 -52 260t-159 94q-108 0 -160 -94t-53 -260q1 -166 53 -259t160 -93q107 0 159 93t52 259zM1042 553q0 -123 -32 -229t-94 -184q-62 -77 -150 -121q-89 -44 -204 -44q-116 0 -206 44t-150 121 q-62 78 -94 184t-31 229q-1 123 31 229t94 182t150 120q90 44 206 44q115 0 204 -44q88 -44 150 -120t94 -182t32 -229z" horiz-adv-x="1124" glyph-name="oacute" unicode="ó"/>
<glyph d="M869 1425q1 -83 -45 -150t-96 -74q-9 -1 -18 -1q-45 0 -101 28q-49 24 -105 46q-21 8 -37 9q-28 0 -45 -23q-27 -36 -36 -63l-88 25q4 81 41 144t109 76q9 2 19 2q25 0 58 -10q45 -14 85 -38q40 -23 72 -28t51 9q20 14 41 66zM773 555q0 166 -52 260t-159 94 q-108 0 -160 -94t-53 -260q1 -166 53 -259t160 -93q107 0 159 93t52 259zM1042 553q0 -123 -32 -229t-94 -184q-62 -77 -150 -121q-89 -44 -204 -44q-116 0 -206 44t-150 121q-62 78 -94 184t-31 229q-1 123 31 229t94 182t150 120q90 44 206 44q115 0 204 -44 q88 -44 150 -120t94 -182t32 -229z" horiz-adv-x="1124" glyph-name="otilde" unicode="õ"/>
<glyph d="M795 1173l-230 178l-230 -179l-91 84l222 223q40 43 96 43q55 0 94 -43l222 -223zM773 555q0 166 -52 260t-159 94q-108 0 -160 -94t-53 -260q1 -166 53 -259t160 -93q107 0 159 93t52 259zM1042 553q0 -123 -32 -229t-94 -184q-62 -77 -150 -121q-89 -44 -204 -44 q-116 0 -206 44t-150 121q-62 78 -94 184t-31 229q-1 123 31 229t94 182t150 120q90 44 206 44q115 0 204 -44q88 -44 150 -120t94 -182t32 -229z" horiz-adv-x="1124" glyph-name="ocircumflex" unicode="ô"/>
<glyph d="M520 1199l-239 270q19 62 114 62t136 -62l118 -269zM988 55q-69 -35 -184 -57t-240 -23q-220 -1 -332 97t-112 313v719h266v-725q0 -174 178 -174q54 0 94 7t62 17v875h268v-1049z" horiz-adv-x="1107" glyph-name="glyph217" unicode="ù"/>
<glyph d="M477 1200l118 269q41 62 136 62t114 -62l-239 -270zM988 55q-69 -35 -184 -57t-240 -23q-220 -1 -332 97t-112 313v719h266v-725q0 -174 178 -174q54 0 94 7t62 17v875h268v-1049z" horiz-adv-x="1107" glyph-name="glyph218" unicode="ú"/>
<glyph d="M477 1200l118 269q41 62 136 62t115 -62l-240 -270zM550 -440h-280l157 440l-399 1104h303l199 -694q10 -31 16 -63t10 -56q7 -29 9 -55h4q2 26 8 55q4 24 11 56t18 63l198 694h301z" horiz-adv-x="1134" glyph-name="glyph235" unicode="ý"/>
<glyph d="M675 297q0 -59 -40 -100t-97 -41q-56 0 -96 41t-39 100q-1 59 39 101t96 42q57 0 97 -42t40 -101zM120 569v193h838v-193h-838zM675 1034q0 -59 -40 -101t-97 -42q-56 0 -96 42t-39 101q-1 60 39 101t96 41q57 0 97 -41t40 -101z" horiz-adv-x="1077" glyph-name="divide" unicode="÷"/>
</font>
</defs>
</svg>
